# xmcd CD database file
#
# Track frame offsets:
#	187
#	15454
#	31069
#	49202
#	64039
#	83877
#	104534
#	128019
#	146912
#	169022
#
# Disc length: 2442 seconds
#
# Revision: 3
# Processed by: cddbd v1.5PL3 Copyright (c) Steve Scherf et al.
# Submitted via: CDex 1.51
#
DISCID=8009880a
DTITLE=Bee Gees - Greatest - Disc 2
DYEAR=1979
DGENRE=Pop
TTITLE0=If I Can't Have You (Saturday Night Fever)
TTITLE1=You Stepped Into My Life
TTITLE2=Love Me
TTITLE3=More Than A Woman (Saturday Night Fever)
TTITLE4=Rest Your Love On Me
TTITLE5=Nights On Broadway
TTITLE6=Spirits (Having Flown)
TTITLE7=Love You Inside Out
TTITLE8=Wind Of Change
TTITLE9=Children Of The World
EXTD=YEAR: 1979
EXTT0=
EXTT1=
EXTT2=
EXTT3=
EXTT4=
EXTT5=
EXTT6=
EXTT7=
EXTT8=
EXTT9=
PLAYORDER=
